<?xml version="1.0" encoding="utf-8"?>
<!-- Svg Vector Icons : http://www.onlinewebfonts.com/icon -->
<!DOCTYPE svg PUBLIC "-//W3C//DTD SVG 1.1//EN" "http://www.w3.org/Graphics/SVG/1.1/DTD/svg11.dtd">
<svg version="1.1" xmlns="http://www.w3.org/2000/svg" xmlns:xlink="http://www.w3.org/1999/xlink" x="0px" y="0px" viewBox="0 0 1000 1000" enable-background="new 0 0 1000 1000" xml:space="preserve">
<metadata> Svg Vector Icons : http://www.onlinewebfonts.com/icon </metadata>
<g><g><g><path d="M987,627.1c0.1-0.2,0.2-0.3,0.3-0.4l-0.4-0.3c-5.9-54.6-20.3-112.5-46.9-146.9c-24.2-31.2-15-128.7-9-193.2c2.2-23.4,4.1-43.6,4.4-58.8c0.5-22.8-4.4-39.6-14.6-50.1c-18.3-18.7-52.1-12.6-81.2,15.1c-19.4,18.6-30,27.5-57.3,27.5c-16,0-36.9-3.4-63.9-10.2c-12.1-3.1-23.8-4.6-34.7-4.6c-73.2,0-105.9,67.7-134.8,127.5l-4.4,9c-29.9,61.5-104.5,96.9-164.4,125.3l-11.9,5.7c-50.4,24.1-121,54.4-197.6,77.3l0,0c0,0,0,0,0,0c-23.4,7-47.4,13.4-71.5,18.6c-36,7.8-61.5,24.9-76,51c-25.1,45.1-6.1,99.6-5.6,101c1.1,3.9,12.9,39.3,72.9,73.6c44.6,25.5,154.1,38.8,239.1,38.8c38.4,0,71.6-2.7,96-7.7c32.6-6.7,96.4-10.2,189.6-10.2c50,0,98.8,0.9,138,1.7c24.3,0.4,44.2,0.8,56.8,0.8c106.6,0,173.5-37.5,179-100.3C990.8,692.8,990.5,660.6,987,627.1z M645,351.6c-16.2-0.1-38.9-2.6-62.2-13.1c4-8.2,7.9-16.3,12-24c12.8,3.7,30.3,7.3,46.3,6.2c-0.7,1.3-1.4,2.6-1.9,4C635.5,334.4,638.1,344.8,645,351.6z M604.4,388.1c-7.4,7.2-9.4,17.7-6.1,26.8c-12.2-5.8-27.8-15.1-42.3-29.3c5.5-7.4,10.5-15.2,15-23.5c9.9,8.3,23.1,17.9,36.8,23.2C606.6,386.2,605.5,387.1,604.4,388.1z M610.1,394c6.8-6.6,17.6-6.5,24.2,0.3c6.6,6.8,6.5,17.6-0.3,24.2c-4.6,4.5-11.1,5.6-16.9,3.9c-0.7-0.2-1.4-0.4-2.3-0.7c-1.8-0.9-3.6-1.9-5-3.5C603.2,411.5,603.4,400.6,610.1,394z M560.3,443c-9.3,4.4-14.6,13.7-14.5,23.3c-9.3-9.1-20.4-22.7-29.3-40c7.3-5.9,14.3-12.2,20.8-18.9c6.6,11.1,16,24.5,27.2,34.1C563,441.9,561.6,442.4,560.3,443z M586.5,458.7c4,8.6,0.4,18.8-8.2,22.8c-5.8,2.8-12.4,1.7-17.2-1.9c-0.6-0.4-1.1-0.8-1.9-1.4c-1.4-1.4-2.8-3-3.6-4.9c-4.1-8.5-0.3-18.8,8.2-22.8C572.3,446.4,582.5,450.1,586.5,458.7z M497.5,491.4c-9.9,2.7-16.8,11-18.4,20.5c-7.8-11-16.8-26.7-22.6-46c8.2-4.5,16.2-9.2,24.2-14.2c4.6,12.2,11.5,27.4,21.2,39C500.5,490.8,499,491,497.5,491.4z M520.7,511.4c2.5,9.1-2.9,18.5-12,21c-6.2,1.7-12.5-0.5-16.7-4.8c-0.5-0.5-1-1-1.6-1.7c-1.2-1.6-2.2-3.4-2.8-5.5c-2.5-9.1,2.9-18.5,12-21C508.8,496.9,518.2,502.3,520.7,511.4z M414.2,487.5c3.3,13.1,9.1,31,18.7,44.9c-1.5,0-2.9,0.1-4.5,0.3c-10.1,1.8-17.7,9.4-20.1,18.8c-7.3-12.4-15.5-30.3-19.2-52l5.2-2.5C400.8,493.9,407.5,490.7,414.2,487.5z M449.7,554.7c1.7,9.3-4.6,18.2-13.9,19.9c-6.4,1.1-12.4-1.6-16.2-6.3c-0.4-0.5-0.9-1.1-1.4-1.8c-1-1.7-1.9-3.6-2.2-5.7c-1.6-9.3,4.6-18.2,13.9-19.9C439.2,539.2,448.1,545.4,449.7,554.7z M381.5,503.1c6.2,33.4,22,57.7,29.8,67.9c1.2,1.9,2.5,3.6,4.1,5.1c0.1,0.1,0.2,0.2,0.2,0.3l0,0c5.6,5.2,13.5,7.9,21.7,6.5c13.8-2.5,23-15.6,20.6-29.4c-1.1-6.3-4.6-11.6-9.3-15.3l0,0c-14.6-12.3-22.9-37.9-26.8-54.1c9-4.4,18.2-9.1,27.3-13.9c9.4,30.7,26.4,52.1,34.7,61.2c1.3,1.7,2.9,3.3,4.6,4.7c0.1,0.1,0.2,0.2,0.3,0.2l0,0c6.1,4.7,14.2,6.7,22.2,4.5c13.5-3.7,21.5-17.6,17.8-31.2c-1.7-6.2-5.6-11.2-10.6-14.4l0,0c-14.4-10.1-24.5-31.9-30.2-47.7c7.4-4.8,14.7-9.9,21.7-15.3c14.6,27.7,34.5,45.3,44.1,52.6c1.6,1.5,3.4,2.8,5.3,3.8c0.1,0.1,0.3,0.1,0.3,0.2l0,0c6.8,3.5,15.1,4.1,22.6,0.6c12.7-6,18.1-21.1,12.1-33.8c-2.7-5.8-7.5-10-13-12.4l0,0c-15.9-7.4-29.5-27-37.9-41.5c2.7-2.9,5.3-5.9,7.8-9c23.3,22.6,48.9,33.2,60.7,37.1c2,0.9,4.1,1.5,6.2,1.9c0.1,0,0.3,0.1,0.3,0.1l0-0.1c7.6,1.1,15.6-1.1,21.6-6.9c10-9.8,10.2-25.9,0.4-35.9c-4.5-4.6-10.4-7-16.3-7.5l0,0c-17.3-1.7-36.3-15.5-49-26.4l3.6-7.5c0.2-0.4,0.4-0.8,0.6-1.2c35.9,16.3,69.9,14.7,84.1,13c2.2,0,4.3-0.4,6.4-1c0.1,0,0.3-0.1,0.3,0l0-0.1c7.4-2.2,13.7-7.6,16.6-15.4c4.9-13.1-1.8-27.8-14.9-32.7c-6-2.3-12.4-2-18,0.2V310c-16.2,5.7-39,1.5-55.1-2.9c21.4-39.6,45.1-68.7,85-68.7c8.2,0,17.1,1.2,26.5,3.6c30.1,7.7,53,11.3,72.1,11.3c41.7,0,60.3-17.8,80.1-36.7c13.4-12.7,25-17.3,30.8-17.3c2.4,0,3.3,0.7,3.9,1.4c1.3,1.4,5.6,7.3,5.2,26.2c-0.3,14-2.1,33.6-4.3,56.4c-7.3,78-16.4,175,15.7,216.5c19,24.6,32.1,69.9,38.6,117.3C879.1,690,529,708.9,305.3,698.3c-27.7-1.3-53.6-3.9-77.8-7.2c-53.3-36.7-41.4-90.5-32.7-113.9c12.7-4,25.1-8.1,37.3-12.3c1.1,31.9,11.8,56.8,17.5,67.7c0.8,2.1,1.9,4,3.2,5.7c0,0.1,0.2,0.2,0.2,0.3l0,0c4.6,6.1,11.9,10.2,20.2,10.2c14,0,25.4-11.4,25.4-25.4c0-6.4-2.5-12.2-6.5-16.7l0,0c-12.2-14.5-15.8-40.9-16.9-57.6c11.1-4.3,21.8-8.6,32.3-12.9c6.3,32.8,21.9,56.6,29.6,66.7c1.2,1.9,2.5,3.6,4.1,5.1c0.1,0.1,0.2,0.2,0.2,0.3l0,0c5.6,5.2,13.5,7.9,21.7,6.5c13.8-2.4,23-15.6,20.6-29.4c-1.1-6.3-4.6-11.6-9.3-15.4l0,0c-13.8-11.6-21.9-35-26.1-51.3C359.9,513.1,371.2,508,381.5,503.1z M646.8,327.7c3.3-8.9,13.2-13.4,22-10c8.9,3.3,13.4,13.2,10,22c-2.3,6-7.7,9.8-13.7,10.7c-0.7,0.1-1.4,0.2-2.3,0.3c-2,0-4.1-0.2-6-1C648,346.4,643.5,336.5,646.8,327.7z M273,597.9c-10.3,0-19.1,6.2-23.1,14.9c-4.7-12.8-9.3-30.5-9.8-50.9c9.1-3.3,18.1-6.5,26.9-9.9c1,13.4,3.6,31.4,10.4,46.3C276,598.1,274.6,597.9,273,597.9z M290.2,623.3c0,9.5-7.7,17.1-17.1,17.1c-6.5,0-11.9-3.8-14.8-9c-0.3-0.6-0.7-1.3-1.1-2.1c-0.7-1.9-1.2-3.9-1.2-6c0-9.4,7.7-17.1,17.1-17.1C282.5,606.2,290.2,613.8,290.2,623.3z M354.1,564.5c-10.1,1.8-17.7,9.4-20.1,18.7c-7.1-12.1-15.1-29.5-18.9-50.4c8.8-3.7,17.3-7.3,25.5-11c3.4,12.8,9,29.4,18,42.4C357.1,564.2,355.6,564.2,354.1,564.5z M375.4,586.5c1.6,9.3-4.6,18.2-13.9,19.9c-6.4,1.1-12.4-1.6-16.2-6.3c-0.4-0.6-0.9-1.1-1.4-1.8c-1-1.7-1.9-3.6-2.2-5.7c-1.7-9.3,4.6-18.2,13.9-19.8C364.9,571,373.8,577.2,375.4,586.5z M106,601c17.2-3.7,34.2-8.1,51.1-12.7c-5.8,28.2-4.5,62.7,15.5,93.7c-61.2-12.3-105.1-27.8-125.3-35.7c1.2-3.6,2.7-7.1,4.5-10.5C61.5,618.4,79.7,606.7,106,601z M48.8,710.5c-0.1-0.2-4.5-13.4-5.5-30.4c40.6,15.3,134.1,45.1,260.4,51.1c0.5,0,5.3,0.2,13.7,0.5l3.3,68.3c-88.5-0.9-181.2-15.7-214-34.4C58.5,738.2,49.1,711.4,48.8,710.5z M955.7,714.7c-5.7,65.1-113.2,70.2-146.1,70.2c-12.5,0-32.1-0.4-56.2-0.8c-39.3-0.8-88.3-1.7-138.6-1.7c-96.8,0-161,3.5-196.2,10.8c-17,3.5-39.2,5.7-64.9,6.6l-3.2-67.1c19,0.4,43,0.7,70.5,0.7c158.2,0,431.6-10.4,535.1-77.7C957.4,676.4,957.3,696.6,955.7,714.7z"/><path d="M556.6,645.5c0,20,16.2,36.2,36.2,36.2c19.9,0,36.2-16.2,36.2-36.2c0-19.9-16.2-36.1-36.2-36.1C572.9,609.3,556.6,625.5,556.6,645.5z M592.8,625.8c10.8,0,19.7,8.8,19.7,19.6c0,10.9-8.8,19.7-19.7,19.7c-10.9,0-19.6-8.8-19.6-19.7C573.2,634.6,582,625.8,592.8,625.8z"/><path d="M636.2,645.5c0,20,16.2,36.2,36.2,36.2c20,0,36.2-16.2,36.2-36.2c0-19.9-16.2-36.1-36.2-36.1C652.4,609.3,636.2,625.5,636.2,645.5z M672.3,625.8c10.8,0,19.6,8.8,19.6,19.6c0,10.9-8.8,19.7-19.6,19.7c-10.9,0-19.7-8.8-19.7-19.7C652.7,634.6,661.5,625.8,672.3,625.8z"/><path d="M269.1,660.9c-14.9,3.7-23.5,5.3-23.7,5.4c-4.5,0.9-7.4,5.2-6.5,9.7c0.8,3.9,4.2,6.7,8.1,6.7c0.5,0,1,0,1.6-0.1c0,0,9-1.7,24.5-5.6c4.4-1.1,7.1-5.6,6-10C278,662.5,273.5,659.8,269.1,660.9z"/><path d="M369.1,630.2c-16.2,6-32.9,11.6-49.7,16.8c-4.4,1.3-6.8,6-5.5,10.3c1.1,3.5,4.4,5.8,7.9,5.8c0.8,0,1.6-0.1,2.4-0.4c17-5.2,34-11,50.5-17c4.3-1.6,6.5-6.3,4.9-10.6C378.1,630.8,373.3,628.6,369.1,630.2z"/><path d="M672.1,439.9c2.6,0,5.2-1.2,6.7-3.5c10.5-14.9,19.9-30.5,27.8-46.2c2-4.1,0.4-9-3.7-11.1c-4.1-2-9.1-0.4-11.1,3.7c-7.6,15-16.5,29.9-26.5,44.1c-2.6,3.7-1.7,8.9,2,11.5C668.8,439.4,670.4,439.9,672.1,439.9z"/><path d="M421,626.6c1.1,0,2.2-0.2,3.3-0.7c16.7-7.2,32.9-14.8,48.3-22.6c4.1-2.1,5.7-7,3.6-11.1c-2.1-4.1-7-5.7-11.1-3.6c-15.1,7.6-31,15.1-47.4,22.2c-4.2,1.8-6.1,6.6-4.3,10.9C414.7,624.7,417.8,626.6,421,626.6z"/><path d="M600.9,517.5c1.9,0,3.8-0.7,5.4-2c13.8-12,26.8-24.5,38.6-37.3c3.1-3.4,2.9-8.6-0.5-11.7c-3.3-3.1-8.6-2.9-11.7,0.5c-11.4,12.3-23.9,24.4-37.3,36c-3.4,3-3.8,8.2-0.8,11.6C596.3,516.6,598.6,517.5,600.9,517.5z"/><path d="M515.1,578.9c1.4,0,2.9-0.4,4.2-1.1c15.6-9.3,30.7-19.1,44.8-29.2c3.7-2.6,4.6-7.8,1.9-11.5c-2.6-3.7-7.8-4.6-11.5-1.9c-13.7,9.8-28.5,19.3-43.7,28.4c-3.9,2.3-5.2,7.4-2.9,11.3C509.6,577.4,512.3,578.9,515.1,578.9z"/><path d="M716.7,345.3c0.8,0.3,1.7,0.4,2.5,0.4c3.5,0,6.8-2.3,7.9-5.8c2.5-8,4.8-16.2,6.7-24.5c1-4.4-1.7-8.9-6.2-9.9c-4.5-1-8.9,1.8-9.9,6.2c-1.8,7.9-4,15.7-6.4,23.3C710,339.3,712.4,343.9,716.7,345.3z"/><path d="M688.8,490.6c1.8,3.8,5.5,6.2,9.8,6c0,0,11.4-0.4,25.4-1c14-0.6,19.9,16.6,13.2,38.3L720.1,589c-1.5,4.7,0.6,9.8,4.9,12.1c1.6,0.8,3.3,1.2,4.9,1.2c3,0,5.9-1.3,7.9-3.7l118.8-143.3c2.6-3.1,3.1-7.5,1.3-11.2c-1.8-3.7-5.7-5.9-9.7-5.8c0,0-10.4,0.4-23.2,1c-12.8,0.5-17.2-16.5-9.7-38l14-40.5c1.6-4.6-0.2-9.7-4.4-12.2c-4.2-2.5-9.5-1.8-12.8,1.8L690.7,479.2C687.9,482.3,687.1,486.8,688.8,490.6z M751.7,443.7l13.7-14.3c15.8-16.4,24.9-18.9,20.3-5.6l-8.4,24.2c-1.1,3.2-0.6,6.8,1.5,9.5c2,2.7,5.4,4.5,8.7,4.1c0,0,8.6-0.3,19.2-0.8c10.6-0.4,7.4,13.4-7.2,31l-17.9,21.7c-14.6,17.5-22.3,18.7-17.3,2.5l9.1-29.3c1-3.2,0.4-8.2-1.7-10.8c-1.9-2.5-5-5.5-8.1-5.5c-0.2,0-10.3,0.8-20.3,1.6C732.2,472.7,735.9,460.1,751.7,443.7z"/></g></g><g></g><g></g><g></g><g></g><g></g><g></g><g></g><g></g><g></g><g></g><g></g><g></g><g></g><g></g><g></g></g>
</svg>